<svg xmlns="http://www.w3.org/2000/svg" viewBox="0 0 24 24">
  <path fill="#00599C" d="M10.84,3.96c0.5-0.87,1.23-1.62,2.15-2.19c2.38-1.48,5.5-1.14,7.49,0.83c1.2,1.19,1.76,2.85,1.52,4.46 c-0.25,1.71-1.31,3.21-2.83,4.01c-1.54,0.81-3.43,0.85-5.01,0.11c-0.48-0.23-0.93-0.52-1.35-0.84c-0.21,0.36-0.45,0.7-0.72,1.02 c-0.71,0.84-1.69,1.45-2.79,1.71c-1.5,0.35-3.09,0.03-4.33-0.84c-1.24-0.87-2.08-2.25-2.26-3.75c-0.18-1.49,0.31-3.04,1.33-4.16 c1.02-1.12,2.52-1.77,4.05-1.77C9.06,2.55,10.14,3.08,10.84,3.96z M14,7v1h1v1h-1v1h-1V9h-1V8h1V7H14z M17,7v1h1v1h-1v1h-1V9h-1V8h1 V7H17z"/>
</svg> 