<svg xmlns="http://www.w3.org/2000/svg" viewBox="0 0 24 24">
  <path fill="#3776AB" d="M11.914,0C5.82,0,6.2,2.656,6.2,2.656l.007,2.752h5.814v.826H3.9S0,5.789,0,11.969c0,6.18,3.403,5.96,3.403,5.96h2.03V15.4s-.109-3.403,3.35-3.403h5.766s3.24.052,3.24-3.137V3.2S18.28,0,11.914,0ZM8.708,1.85a1.048,1.048,0,1,1-1.048,1.048A1.048,1.048,0,0,1,8.708,1.85Zm-.03,17.876c-4.448,0-4.448-4.448-4.448-4.448V12.19s-.239-4.448,4.448-4.448h3.1s4.448.059,4.448,4.448v3.087s.245,4.448-4.448,4.448Z"/>
  <path fill="#FFD43B" d="M12.086,24c6.094,0,5.716-2.656,5.716-2.656l-.007-2.752H11.98v-.826h8.121S24,18.211,24,12.031c0-6.18-3.403-5.96-3.403-5.96h-2.03v2.529s.109,3.403-3.35,3.403H9.45S6.21,11.951,6.21,15.14v5.664S5.72,24,12.086,24Zm3.207-1.85a1.048,1.048,0,1,0,1.048-1.048A1.048,1.048,0,0,0,15.293,22.15ZM15.322,4.274c4.448,0,4.448,4.448,4.448,4.448V11.81s.239,4.448-4.448,4.448h-3.1S7.774,16.2,7.774,11.81V8.722S7.529,4.274,12.222,4.274Z"/>
</svg> 