<svg xmlns="http://www.w3.org/2000/svg" viewBox="0 0 24 24">
  <path fill="#61DAFB" d="M12 13.5a1.5 1.5 0 100-3 1.5 1.5 0 000 3z"/>
  <path fill="#61DAFB" d="M12 21.09c-7.26 0-11.6-3.36-11.6-9.09 0-5.73 4.34-9.09 11.6-9.09 7.26 0 11.6 3.36 11.6 9.09 0 5.73-4.34 9.09-11.6 9.09zm0-16.18c-6.32 0-9.6 2.67-9.6 7.09 0 4.42 3.28 7.09 9.6 7.09 6.32 0 9.6-2.67 9.6-7.09 0-4.42-3.28-7.09-9.6-7.09z"/>
  <path fill="#61DAFB" d="M12 21.09c-2.14 0-3.88-7.36-3.88-9.09S9.86 2.91 12 2.91c2.14 0 3.88 7.36 3.88 9.09s-1.74 9.09-3.88 9.09zm0-16.18c-.92 0-1.88 6.14-1.88 7.09 0 .95.96 7.09 1.88 7.09.92 0 1.88-6.14 1.88-7.09 0-.95-.96-7.09-1.88-7.09z"/>
</svg> 